# xmcd
#
# Track frame offsets: 
#        150
#        20062
#        34740
#        45942
#        59375
#        73535
#        90505
#        104292
#        121067
#        135625
#        151365
#        162935
#        179665
#        193170
#        204445
#        221292
#        232822
#        244937
#        257600
#        270382
#        282805
#        295065
#
# Disc length: 4083 seconds
#
# Revision: 1
# Processed by: cddbd v1.5.1PL0 Copyright (c) Steve Scherf et al.
# Submitted via: ExactAudioCopy v0.95a5
#
DISCID=320ff116
DTITLE=Various Artist - The Best Country In Town
DYEAR=1999
DGENRE=Country
TTITLE0=Glen Campbell - Amazing Grace
TTITLE1=Joan Baze - Donna Donna
TTITLE2=The Brother Four - Blowin' in the Wind
TTITLE3=Jim Reeves - Danny Boy 
TTITLE4=Ringston Trio - Where have all the flowers
TTITLE5=Agens Chan - Moter of Mine
TTITLE6=Sandy Folar - Greensleeves
TTITLE7=Glen Campbell - Yesterday When I was Young
TTITLE8=Conway Twitty - Hello Darlin
TTITLE9=Peter Paul and Mary - Leaving on a Jet Plane
TTITLE10=Ronnie Carroll - Roses are Red
TTITLE11=Richard Johns - Operator
TTITLE12=Johnny Horton - Whispering Pines
TTITLE13=Te Brothers Four - Yellow Bird
TTITLE14=Glen Campbell - Both Sides Now 
TTITLE15=Sammi Smith - Help me Make it Through the Night
TTITLE16=Jose Feliciano - Rain
TTITLE17=Johnny Horton - All for the Love of a Girl
TTITLE18=Eddy Arnold - Then You Can Tell Me Goodbye
TTITLE19=Glen Campbell - By The Time I Get to Phoenix
TTITLE20=Peter Paul and Mary - Gone the Rainbow
TTITLE21=Frankie Laine - Rose Rose I Love You
EXTD=
EXTT0=
EXTT1=
EXTT2=
EXTT3=
EXTT4=
EXTT5=
EXTT6=
EXTT7=
EXTT8=
EXTT9=
EXTT10=
EXTT11=
EXTT12=
EXTT13=
EXTT14=
EXTT15=
EXTT16=
EXTT17=
EXTT18=
EXTT19=
EXTT20=
EXTT21=
PLAYORDER=
